<svg width="177" height="171" viewBox="0 0 177 171" fill="none" xmlns="http://www.w3.org/2000/svg">
<path d="M0 0L101.017 4.01678L177 0L172.877 171L0 167.27V0Z" fill="#FFE100"/>
<path d="M81.068 67.1958V95.793C81.068 98.7527 80.3954 100.79 79.0501 101.905C77.7048 103.019 75.2256 103.577 71.6125 103.577H68.672L67.9225 95.7354H69.8828C70.5362 95.7354 70.9398 95.6585 71.0936 95.5047C71.2857 95.3126 71.3818 94.9282 71.3818 94.3516V67.1958H81.068ZM84.5323 77.9774C84.5323 74.5565 85.5317 71.8082 87.5304 69.7326C89.5291 67.657 92.2582 66.6192 95.7175 66.6192C99.2153 66.6192 102.79 66.9651 106.442 67.657L105.288 76.8819C101.483 75.9979 98.8694 75.5559 97.4472 75.5559C95.6407 75.5559 94.7374 76.2862 94.7374 77.7468C94.7374 78.3233 95.1602 78.8807 96.0058 79.4188C96.8899 79.9569 97.9469 80.5335 99.1769 81.1485C100.407 81.725 101.637 82.4361 102.867 83.2817C104.097 84.0889 105.135 85.2612 105.98 86.7987C106.864 88.3362 107.306 90.1043 107.306 92.1031C107.306 95.7546 106.326 98.5797 104.366 100.578C102.406 102.577 99.6189 103.577 96.0058 103.577C92.4311 103.577 88.9334 103.019 85.5125 101.905L86.1467 93.3138C90.2594 94.5054 93.123 95.1012 94.7374 95.1012C96.3517 95.1012 97.1589 94.3901 97.1589 92.9679C97.1589 92.2376 96.7169 91.5649 95.8328 90.9499C94.9872 90.3349 93.9494 89.72 92.7194 89.105C91.4894 88.49 90.2402 87.7789 88.9718 86.9717C87.7418 86.1645 86.6848 84.9922 85.8007 83.4547C84.9551 81.9172 84.5323 80.0914 84.5323 77.9774Z" fill="black"/>
</svg>
