<svg width="185" height="181" viewBox="0 0 185 181" fill="none" xmlns="http://www.w3.org/2000/svg">
<path d="M0 0H185L181.096 181H135.822L117.727 180.401L90.5479 181H0V0Z" fill="#0077FF"/>
<path d="M67.4158 91.4726C67.4158 94.8551 67.7426 97.2767 68.396 98.7373C69.0879 100.159 70.2025 100.871 71.74 100.871C73.2775 100.871 75.4492 100.505 78.2551 99.7751L79.7542 107.905C76.7176 109.019 73.6619 109.577 70.5869 109.577C65.9744 109.577 62.6112 108.058 60.4971 105.022C58.4215 101.947 57.3837 97.392 57.3837 91.3573C57.3837 85.2843 58.4792 80.6526 60.6701 77.4623C62.861 74.2336 66.4357 72.6192 71.3941 72.6192C74.3153 72.6192 77.102 73.2342 79.7542 74.4642L78.1975 83.4008C75.1994 82.4015 73.1045 81.9018 71.913 81.9018C70.2218 81.9018 69.0494 82.6513 68.396 84.1504C67.7426 85.611 67.4158 88.0517 67.4158 91.4726ZM80.5704 83.9774C80.5704 80.5565 81.5697 77.8082 83.5685 75.7326C85.5672 73.657 88.2962 72.6192 91.7556 72.6192C95.2534 72.6192 98.828 72.9651 102.48 73.657L101.326 82.8819C97.5212 81.9979 94.9074 81.5559 93.4853 81.5559C91.6787 81.5559 90.7754 82.2862 90.7754 83.7468C90.7754 84.3233 91.1982 84.8807 92.0439 85.4188C92.9279 85.9569 93.9849 86.5335 95.2149 87.1485C96.4449 87.725 97.6749 88.4361 98.9049 89.2817C100.135 90.0889 101.173 91.2612 102.018 92.7987C102.902 94.3362 103.344 96.1043 103.344 98.1031C103.344 101.755 102.364 104.58 100.404 106.578C98.4437 108.577 95.657 109.577 92.0439 109.577C88.4692 109.577 84.9714 109.019 81.5505 107.905L82.1847 99.3138C86.2975 100.505 89.1611 101.101 90.7754 101.101C92.3898 101.101 93.197 100.39 93.197 98.9679C93.197 98.2376 92.755 97.5649 91.8709 96.9499C91.0253 96.3349 89.9875 95.72 88.7575 95.105C87.5275 94.49 86.2783 93.7789 85.0099 92.9717C83.7799 92.1645 82.7228 90.9922 81.8388 89.4547C80.9932 87.9172 80.5704 86.0914 80.5704 83.9774ZM105.175 83.9774C105.175 80.5565 106.175 77.8082 108.174 75.7326C110.172 73.657 112.901 72.6192 116.361 72.6192C119.858 72.6192 123.433 72.9651 127.085 73.657L125.931 82.8819C122.126 81.9979 119.512 81.5559 118.09 81.5559C116.284 81.5559 115.38 82.2862 115.38 83.7468C115.38 84.3233 115.803 84.8807 116.649 85.4188C117.533 85.9569 118.59 86.5335 119.82 87.1485C121.05 87.725 122.28 88.4361 123.51 89.2817C124.74 90.0889 125.778 91.2612 126.623 92.7987C127.507 94.3362 127.949 96.1043 127.949 98.1031C127.949 101.755 126.969 104.58 125.009 106.578C123.049 108.577 120.262 109.577 116.649 109.577C113.074 109.577 109.576 109.019 106.156 107.905L106.79 99.3138C110.903 100.505 113.766 101.101 115.38 101.101C116.995 101.101 117.802 100.39 117.802 98.9679C117.802 98.2376 117.36 97.5649 116.476 96.9499C115.63 96.3349 114.593 95.72 113.363 95.105C112.133 94.49 110.883 93.7789 109.615 92.9717C108.385 92.1645 107.328 90.9922 106.444 89.4547C105.598 87.9172 105.175 86.0914 105.175 83.9774Z" fill="white"/>
</svg>
