<svg width="190" height="190" viewBox="0 0 190 190" fill="none" xmlns="http://www.w3.org/2000/svg">
<path d="M5.74841 3.02548L190 0L185.462 186.067L0 190L5.74841 92.2771V3.02548Z" fill="#FFA600"/>
<path d="M66.0009 112H56.1994V98.4509H49.4536V112H39.5369V76.1958H49.4536V90.2638H56.1994V76.1958H66.0009V112ZM91.6559 84.9018H84.9678V112H75.1087V84.9018H68.017L68.5936 76.1958H92.2324L91.6559 84.9018ZM129.141 112H120.089V93.3195H119.57L116.169 112H106.886L103.657 93.3195H103.081V112H94.1441L95.3548 76.1958H108.327L111.556 95.5681H112.017L115.131 76.1958H127.93L129.141 112ZM152.066 112H133.847V76.1958H143.706V103.986H152.643L152.066 112Z" fill="white"/>
</svg>
