<svg width="30" height="30" viewBox="0 0 30 30" fill="none" xmlns="http://www.w3.org/2000/svg">
<path fill-rule="evenodd" clip-rule="evenodd" d="M16.875 2.64941V27.3507L9.02812 20.625H3.75V9.37504H9.02812L16.875 2.64941ZM24.4744 6.38066C25.6063 7.5124 26.5041 8.85601 27.1167 10.3348C27.7293 11.8135 28.0446 13.3985 28.0446 14.9991C28.0446 16.5997 27.7293 18.1847 27.1167 19.6634C26.5041 21.1422 25.6063 22.4858 24.4744 23.6175L23.1487 22.2919C25.0826 20.358 26.169 17.735 26.169 15C26.169 12.2651 25.0826 9.64212 23.1487 7.70816L24.4744 6.38066ZM20.5781 10.3594C21.1876 10.9688 21.671 11.6923 22.0009 12.4885C22.3307 13.2848 22.5005 14.1382 22.5005 15C22.5005 15.8619 22.3307 16.7153 22.0009 17.5116C21.671 18.3078 21.1876 19.0313 20.5781 19.6407L19.2525 18.315C19.6879 17.8797 20.0333 17.3629 20.2689 16.7942C20.5046 16.2254 20.6259 15.6157 20.6259 15C20.6259 14.3844 20.5046 13.7747 20.2689 13.2059C20.0333 12.6371 19.6879 12.1203 19.2525 11.685L20.5781 10.3594Z" fill="black"/>
</svg>
